PathFileType	4	(X/Y/Z)	8_coords_data.trc
DataRate	CameraRate	NumFrames	NumMarkers	Units	OrigDataRate	OrigDataStartFrame	OrigNumFrames
30.0	30.0	8	21	m	30.0	1	47
Frame#	Time	THUMB_TIP	THUMB_IP	THUMB_MCP	THUMB_CMC	INDEX_TIP	INDEX_DIP	INDEX_PIP	INDEX_MCP	MIDDLE_TIP	MIDDLE_DIP	MIDDLE_PIP	MIDDLE_MCP	RING_TIP	RING_DIP	RING_PIP	RING_MCP	PINKY_TIP	PINKY_DIP	PINKY_PIP	PINKY_MCP	WRIST
X1	Y1	Z1	X2	Y2	Z2	X3	Y3	Z3	X4	Y4	Z4	X5	Y5	Z5	X6	Y6	Z6	X7	Y7	Z7	X8	Y8	Z8	X9	Y9	Z9	X10	Y10	Z10	X11	Y11	Z11	X12	Y12	Z12	X13	Y13	Z13	X14	Y14	Z14	X15	Y15	Z15	X16	Y16	Z16	X17	Y17	Z17	X18	Y18	Z18	X19	Y19	Z19	X20	Y20	Z20	X21	Y21	Z21
0	0.0	-0.02575539970397949	0.01150160026550293	0.9391950073242188	-0.026944599151611327	6.5989702939987e-05	0.9625180053710938	-0.036970401763916014	-0.001887969970703125	0.9862589721679688	-0.04583760070800781	0.021474100112915038	0.9961309814453125	-0.05486709976196289	-0.007378359794616699	0.9702269897460938	-0.03805059814453125	-0.009791549682617187	0.9604420166015625	-0.043497398376464845	-0.0153572998046875	0.9473889770507813	-0.078597900390625	-0.012243200302124023	0.9565269775390625	-0.03434239959716797	0.002119729995727539	0.96539599609375	-0.0341598014831543	0.0054642300605773925	0.9581019897460937	-0.04096590042114258	0.003886820077896118	0.94010498046875	-0.08125060272216797	0.008063460350036621	0.9511530151367188	0.0	0.0	0.0	-0.03848699951171875	0.022942399978637694	0.9678610229492187	-0.0373223991394043	0.02414229965209961	0.9443930053710937	-0.07348860168457032	0.026947599411010742	0.9486799926757813	-0.04965810012817383	0.036824901580810546	0.9839229736328124	-0.03660020065307617	0.03534339904785156	0.9697150268554687	-0.037033100128173825	0.03826290130615234	0.9548740234375	-0.06280670166015626	0.042978599548339845	0.9529400024414062	-0.07341889953613281	0.03953310012817383	1.0204600219726563
1	0.03333333333333333	-0.02688949966430664	0.011744400024414063	0.939218017578125	-0.026019800186157228	-0.000155833005905151	0.9616119995117187	-0.03738809967041016	-0.00270861005783081	0.9865679931640625	-0.04766899871826172	0.019602899551391603	1.0003900146484375	-0.05369850158691406	-0.007647290229797364	0.974364013671875	-0.0402932014465332	-0.009464770317077638	0.9644760131835938	-0.04332339859008789	-0.015972200393676757	0.9470449829101563	-0.07829940032958985	-0.012461600303649902	0.9580549926757812	-0.03954489898681641	0.00588608980178833	0.9691790161132813	-0.03763990020751953	0.006532400131225586	0.96377001953125	-0.04091109848022461	0.003254519939422607	0.9404710083007812	-0.07940299987792969	0.00717372989654541	0.95027001953125	-0.04506959915161133	0.021354400634765625	0.9760989990234376	-0.038027698516845704	0.022957399368286134	0.96852197265625	-0.03644580078125	0.023062299728393555	0.9446309814453125	-0.07318689727783204	0.026002700805664063	0.9495880126953125	-0.04971220016479492	0.03627209854125977	0.9813839721679688	-0.037423698425292966	0.0362057991027832	0.97222900390625	-0.03656449890136719	0.037948898315429684	0.9552340087890625	-0.06424459838867187	0.04299290084838867	0.9533519897460937	-0.0743302001953125	0.039658699035644535	1.02077001953125
2	0.06666666666666667	-0.02715399932861328	0.010999199867248535	0.9391699829101563	-0.026222600936889648	-0.0007864009737968441	0.9616580200195313	-0.03745999908447266	-0.003220020055770874	0.9866339721679688	-0.047757801055908204	0.01909779930114746	1.0004000244140625	-0.0539650993347168	-0.008220780372619628	0.9745460205078125	-0.04052880096435547	-0.010025400161743164	0.9646079711914063	-0.04361080169677734	-0.016562999725341795	0.9471259765625	-0.07873310089111328	-0.0129266996383667	0.9583660278320313	-0.0396609992980957	0.005136499881744385	0.9686199951171875	-0.03768299865722656	0.005991849899291992	0.9640120239257812	-0.04115340042114258	0.002651969909667968	0.940531005859375	-0.07963880157470703	0.00665188980102539	0.9504550170898437	-0.04494390106201172	0.020675100326538087	0.9755980224609375	-0.03820830154418945	0.022338899612426757	0.9686079711914063	-0.03662870025634766	0.022420900344848633	0.9448699951171875	-0.07332230377197266	0.025461999893188477	0.9496729736328124	-0.0497942008972168	0.0357140998840332	0.9814219970703125	-0.03757509994506836	0.0356260986328125	0.972385986328125	-0.03667300033569336	0.03731869888305664	0.9553079833984375	-0.06429669952392578	0.04244020080566406	0.9533569946289062	-0.07457740020751953	0.03934080123901367	1.0211500244140626
3	0.1	-0.027290000915527343	0.010445599555969238	0.9392689819335938	-0.026418399810791016	-0.001249650001525879	0.961718994140625	-0.03771179962158203	-0.003671109914779663	0.9866840209960938	-0.04801729965209961	0.018659299850463867	1.000469970703125	-0.05416519927978516	-0.008415570259094238	0.9752979736328125	-0.04075809860229492	-0.010491000175476075	0.9645819702148437	-0.04382120132446289	-0.01700320053100586	0.9471209716796875	-0.07874639892578125	-0.013394300460815429	0.9583090209960937	-0.039819400787353514	0.004841269969940186	0.9690830078125	-0.037784400939941405	0.0055608201026916505	0.9639310302734375	-0.04134989929199219	0.002243299961090088	0.9406199951171875	-0.07982559967041016	0.006231790065765381	0.95047802734375	-0.045323299407958983	0.02019219970703125	0.9755919799804688	-0.03842470169067383	0.021878400802612306	0.9686229858398437	-0.036866798400878906	0.02197629928588867	0.9447849731445312	-0.07357009887695312	0.025021499633789062	0.9497550048828125	-0.050187698364257814	0.0352666015625	0.9815020141601563	-0.037810501098632814	0.03517330169677734	0.97247900390625	-0.036894798278808594	0.036905799865722656	0.9554000244140625	-0.06455059814453125	0.04201750183105469	0.9534119873046875	-0.07493990325927734	0.03884310150146485	1.0211199951171874
4	0.13333333333333333	-0.027378299713134765	0.010202400207519531	0.9394190063476563	-0.026497900009155275	-0.0015050499439239501	0.961698974609375	-0.03780720138549805	-0.003987920045852661	0.986583984375	-0.04800279998779297	0.018289199829101564	1.0004400024414062	-0.054152698516845704	-0.008922450065612793	0.9750230102539063	-0.04082040023803711	-0.010779899597167969	0.9645280151367187	-0.04387120056152344	-0.01727939987182617	0.9470770263671875	-0.07891940307617187	-0.013770199775695801	0.9579910278320313	-0.039997699737548825	0.004407519817352295	0.9685960083007813	-0.0380521011352539	0.005322569847106933	0.9639869995117187	-0.04145009994506836	0.00197293996810913	0.9404929809570313	-0.07990630340576171	0.005892990112304687	0.9503889770507813	-0.04560449981689453	0.020009700775146484	0.9762210083007813	-0.03855139923095703	0.021643600463867187	0.968625	-0.037015800476074216	0.021716100692749023	0.9447109985351563	-0.07365769958496093	0.024650400161743163	0.9496489868164063	-0.05015399932861328	0.03499670028686523	0.9813759765625	-0.03800279998779297	0.03492890167236328	0.9725120239257813	-0.03710319900512695	0.03667670059204101	0.9555960083007813	-0.06468340301513673	0.04168209838867187	0.953343994140625	-0.07516590118408203	0.038511699676513675	1.021030029296875
5	0.16666666666666666	-0.027617900848388673	0.00985692024230957	0.9392020263671875	-0.026732900619506835	-0.001813500046730041	0.9615390014648437	-0.03799359893798828	-0.004295229911804199	0.986469970703125	-0.04828580093383789	0.017986099243164064	1.0003800048828124	-0.05444760131835937	-0.00922978973388672	0.9747570190429687	-0.04098049926757812	-0.011091099739074708	0.9643820190429687	-0.044150001525878904	-0.01760470008850098	0.9468829956054687	-0.07905149841308594	-0.014046999931335449	0.9582570190429688	-0.0401072998046875	0.004162670135498047	0.9686209716796875	-0.038381698608398435	0.004962039947509766	0.9637150268554687	-0.041713199615478515	0.001664809942245483	0.940344970703125	-0.08011930084228516	0.005607200145721435	0.9504080200195313	-0.04612540054321289	0.0198617000579834	0.9764500122070312	-0.03874300003051758	0.021319400787353514	0.9683880004882812	-0.037242000579833984	0.02141230010986328	0.944572998046875	-0.07387629699707031	0.02439109992980957	0.9496699829101563	-0.05054759979248047	0.034734798431396485	0.981447998046875	-0.03823239898681641	0.03460160064697266	0.9723319702148437	-0.03727999877929687	0.03629759979248047	0.9551890258789062	-0.06495770263671875	0.041397899627685544	0.95339697265625	-0.07510919952392578	0.03820009994506836	1.0210700073242187
6	0.2	-0.02750830078125	0.009814350128173829	0.9392349853515625	-0.026665700912475585	-0.001939640045166015	0.9616129760742187	-0.038066299438476565	-0.004500249862670899	0.986385986328125	-0.048308700561523435	0.017656700134277344	1.0002899780273438	-0.05433290100097656	-0.009552350044250488	0.9745640258789062	-0.04086759948730469	-0.011323499679565429	0.9642269897460938	-0.04397760009765625	-0.01776289939880371	0.9466389770507813	-0.0788949966430664	-0.014357500076293946	0.9580549926757812	-0.040011398315429686	0.003879770040512085	0.9685499877929687	-0.038206901550292965	0.0047402501106262205	0.9636740112304687	-0.041549301147460936	0.001535140037536621	0.9402739868164063	-0.08004910278320312	0.005344550132751465	0.9502210083007813	-0.04566759872436523	0.0194552001953125	0.9756400146484375	-0.038682701110839844	0.02110530090332031	0.9685050048828125	-0.03721969985961914	0.021222000122070313	0.9444639892578125	-0.07382019805908203	0.024126300811767577	0.9495449829101562	-0.05033000183105469	0.03438150024414063	0.9812940063476563	-0.03826929855346679	0.03437419891357422	0.9725750122070312	-0.03727399826049805	0.03614070129394531	0.9553319702148437	-0.06494979858398438	0.04115340042114258	0.9533259887695312	-0.07530940246582031	0.037771800994873046	1.0209500122070312
7	0.23333333333333334	-0.02759950065612793	0.009432519912719727	0.9390380249023438	-0.02672249984741211	-0.002255500078201294	0.9613980102539063	-0.0379896011352539	-0.004847990036010742	0.9863159790039062	-0.04840610122680664	0.017394699096679688	1.0001699829101562	-0.05428789901733398	-0.009843709945678712	0.9746409912109375	-0.04093610000610352	-0.011626399993896485	0.9642109985351562	-0.04406840133666992	-0.018096200942993163	0.9466370239257812	-0.07894640350341797	-0.014717100143432617	0.9579630126953125	-0.04011660003662109	0.003696769952774048	0.9686909790039062	-0.038187999725341794	0.0044155302047729494	0.9634619750976563	-0.04166370010375976	0.001174280047416687	0.9401909790039062	-0.08013300323486328	0.004994890213012695	0.9501710205078125	-0.04469940185546875	0.01911520004272461	0.9748709716796875	-0.03877379989624023	0.020779199600219726	0.9682420043945312	-0.03727679824829101	0.020915599822998048	0.9444459838867187	-0.07395140075683594	0.023810600280761717	0.9495800170898437	-0.05066749954223633	0.03408280181884766	0.9812479858398437	-0.038197399139404294	0.03399409866333008	0.9721719970703125	-0.03741059875488281	0.03577000045776367	0.9550120239257812	-0.06502510070800781	0.040815101623535154	0.9533049926757813	-0.07510109710693359	0.03738510131835938	1.0206599731445312
